<svg xmlns="http://www.w3.org/2000/svg" version="1.1" xmlns:xlink="http://www.w3.org/1999/xlink" xmlns:svgjs="http://svgjs.com/svgjs" width="1280" height="800" preserveAspectRatio="none" viewBox="0 0 1280 800">
    <g mask="url(&quot;#SvgjsMask1056&quot;)" fill="none">
        <path d="M13.02 -6.18L77.11 30.82L77.11 104.82L13.02 141.82L-51.07 104.82L-51.07 30.82zM77.11 104.82L141.2 141.82L141.2 215.82L77.11 252.82L13.02 215.82L13.02 141.82zM141.2 -6.18L205.28 30.82L205.28 104.82L141.2 141.82L77.11 104.82L77.11 30.82zM205.28 104.82L269.37 141.82L269.37 215.82L205.28 252.82L141.2 215.82L141.2 141.82zM205.28 326.82L269.37 363.82L269.37 437.82L205.28 474.82L141.2 437.82L141.2 363.82zM269.37 -6.18L333.46 30.82L333.46 104.82L269.37 141.82L205.28 104.82L205.28 30.82zM333.46 104.82L397.55 141.82L397.55 215.82L333.46 252.82L269.37 215.82L269.37 141.82zM333.46 326.82L397.55 363.82L397.55 437.82L333.46 474.82L269.37 437.82L269.37 363.82zM333.46 548.82L397.55 585.82L397.55 659.82L333.46 696.82L269.37 659.82L269.37 585.82zM461.63 104.82L525.72 141.82L525.72 215.82L461.63 252.82L397.55 215.82L397.55 141.82zM461.63 548.82L525.72 585.82L525.72 659.82L461.63 696.82L397.55 659.82L397.55 585.82zM461.63 770.82L525.72 807.82L525.72 881.82L461.63 918.82L397.55 881.82L397.55 807.82zM525.72 215.82L589.81 252.82L589.81 326.82L525.72 363.82L461.63 326.82L461.63 252.82zM525.72 437.82L589.81 474.82L589.81 548.82L525.72 585.82L461.63 548.82L461.63 474.82zM525.72 659.82L589.81 696.82L589.81 770.82L525.72 807.82L461.63 770.82L461.63 696.82zM717.98 104.82L782.07 141.82L782.07 215.82L717.98 252.82L653.9 215.82L653.9 141.82zM653.9 437.82L717.98 474.82L717.98 548.82L653.9 585.82L589.81 548.82L589.81 474.82zM653.9 659.82L717.98 696.82L717.98 770.82L653.9 807.82L589.81 770.82L589.81 696.82zM846.16 104.82L910.25 141.82L910.25 215.82L846.16 252.82L782.07 215.82L782.07 141.82zM846.16 770.82L910.25 807.82L910.25 881.82L846.16 918.82L782.07 881.82L782.07 807.82zM910.25 437.82L974.34 474.82L974.34 548.82L910.25 585.82L846.16 548.82L846.16 474.82zM974.34 770.82L1038.42 807.82L1038.42 881.82L974.34 918.82L910.25 881.82L910.25 807.82zM1038.42 437.82L1102.51 474.82L1102.51 548.82L1038.42 585.82L974.34 548.82L974.34 474.82zM1038.42 659.82L1102.51 696.82L1102.51 770.82L1038.42 807.82L974.34 770.82L974.34 696.82zM1166.6 -6.18L1230.69 30.82L1230.69 104.82L1166.6 141.82L1102.51 104.82L1102.51 30.82zM1166.6 659.82L1230.69 696.82L1230.69 770.82L1166.6 807.82L1102.51 770.82L1102.51 696.82z" stroke="rgba(0, 0, 0, 0)" stroke-width="2"></path>
        <path d="M5.62 -6.18 a7.4 7.4 0 1 0 14.8 0 a7.4 7.4 0 1 0 -14.8 0zM69.71 30.82 a7.4 7.4 0 1 0 14.8 0 a7.4 7.4 0 1 0 -14.8 0zM69.71 104.82 a7.4 7.4 0 1 0 14.8 0 a7.4 7.4 0 1 0 -14.8 0zM5.62 141.82 a7.4 7.4 0 1 0 14.8 0 a7.4 7.4 0 1 0 -14.8 0zM-58.47 104.82 a7.4 7.4 0 1 0 14.8 0 a7.4 7.4 0 1 0 -14.8 0zM-58.47 30.82 a7.4 7.4 0 1 0 14.8 0 a7.4 7.4 0 1 0 -14.8 0zM133.8 141.82 a7.4 7.4 0 1 0 14.8 0 a7.4 7.4 0 1 0 -14.8 0zM133.8 215.82 a7.4 7.4 0 1 0 14.8 0 a7.4 7.4 0 1 0 -14.8 0zM69.71 252.82 a7.4 7.4 0 1 0 14.8 0 a7.4 7.4 0 1 0 -14.8 0zM5.62 215.82 a7.4 7.4 0 1 0 14.8 0 a7.4 7.4 0 1 0 -14.8 0zM133.8 -6.18 a7.4 7.4 0 1 0 14.8 0 a7.4 7.4 0 1 0 -14.8 0zM197.88 30.82 a7.4 7.4 0 1 0 14.8 0 a7.4 7.4 0 1 0 -14.8 0zM197.88 104.82 a7.4 7.4 0 1 0 14.8 0 a7.4 7.4 0 1 0 -14.8 0zM261.97 141.82 a7.4 7.4 0 1 0 14.8 0 a7.4 7.4 0 1 0 -14.8 0zM261.97 215.82 a7.4 7.4 0 1 0 14.8 0 a7.4 7.4 0 1 0 -14.8 0zM197.88 252.82 a7.4 7.4 0 1 0 14.8 0 a7.4 7.4 0 1 0 -14.8 0zM197.88 326.82 a7.4 7.4 0 1 0 14.8 0 a7.4 7.4 0 1 0 -14.8 0zM261.97 363.82 a7.4 7.4 0 1 0 14.8 0 a7.4 7.4 0 1 0 -14.8 0zM261.97 437.82 a7.4 7.4 0 1 0 14.8 0 a7.4 7.4 0 1 0 -14.8 0zM197.88 474.82 a7.4 7.4 0 1 0 14.8 0 a7.4 7.4 0 1 0 -14.8 0zM133.8 437.82 a7.4 7.4 0 1 0 14.8 0 a7.4 7.4 0 1 0 -14.8 0zM133.8 363.82 a7.4 7.4 0 1 0 14.8 0 a7.4 7.4 0 1 0 -14.8 0zM261.97 -6.18 a7.4 7.4 0 1 0 14.8 0 a7.4 7.4 0 1 0 -14.8 0zM326.06 30.82 a7.4 7.4 0 1 0 14.8 0 a7.4 7.4 0 1 0 -14.8 0zM326.06 104.82 a7.4 7.4 0 1 0 14.8 0 a7.4 7.4 0 1 0 -14.8 0zM390.15 141.82 a7.4 7.4 0 1 0 14.8 0 a7.4 7.4 0 1 0 -14.8 0zM390.15 215.82 a7.4 7.4 0 1 0 14.8 0 a7.4 7.4 0 1 0 -14.8 0zM326.06 252.82 a7.4 7.4 0 1 0 14.8 0 a7.4 7.4 0 1 0 -14.8 0zM326.06 326.82 a7.4 7.4 0 1 0 14.8 0 a7.4 7.4 0 1 0 -14.8 0zM390.15 363.82 a7.4 7.4 0 1 0 14.8 0 a7.4 7.4 0 1 0 -14.8 0zM390.15 437.82 a7.4 7.4 0 1 0 14.8 0 a7.4 7.4 0 1 0 -14.8 0zM326.06 474.82 a7.4 7.4 0 1 0 14.8 0 a7.4 7.4 0 1 0 -14.8 0zM326.06 548.82 a7.4 7.4 0 1 0 14.8 0 a7.4 7.4 0 1 0 -14.8 0zM390.15 585.82 a7.4 7.4 0 1 0 14.8 0 a7.4 7.4 0 1 0 -14.8 0zM390.15 659.82 a7.4 7.4 0 1 0 14.8 0 a7.4 7.4 0 1 0 -14.8 0zM326.06 696.82 a7.4 7.4 0 1 0 14.8 0 a7.4 7.4 0 1 0 -14.8 0zM261.97 659.82 a7.4 7.4 0 1 0 14.8 0 a7.4 7.4 0 1 0 -14.8 0zM261.97 585.82 a7.4 7.4 0 1 0 14.8 0 a7.4 7.4 0 1 0 -14.8 0zM454.23 104.82 a7.4 7.4 0 1 0 14.8 0 a7.4 7.4 0 1 0 -14.8 0zM518.32 141.82 a7.4 7.4 0 1 0 14.8 0 a7.4 7.4 0 1 0 -14.8 0zM518.32 215.82 a7.4 7.4 0 1 0 14.8 0 a7.4 7.4 0 1 0 -14.8 0zM454.23 252.82 a7.4 7.4 0 1 0 14.8 0 a7.4 7.4 0 1 0 -14.8 0zM454.23 548.82 a7.4 7.4 0 1 0 14.8 0 a7.4 7.4 0 1 0 -14.8 0zM518.32 585.82 a7.4 7.4 0 1 0 14.8 0 a7.4 7.4 0 1 0 -14.8 0zM518.32 659.82 a7.4 7.4 0 1 0 14.8 0 a7.4 7.4 0 1 0 -14.8 0zM454.23 696.82 a7.4 7.4 0 1 0 14.8 0 a7.4 7.4 0 1 0 -14.8 0zM454.23 770.82 a7.4 7.4 0 1 0 14.8 0 a7.4 7.4 0 1 0 -14.8 0zM518.32 807.82 a7.4 7.4 0 1 0 14.8 0 a7.4 7.4 0 1 0 -14.8 0zM518.32 881.82 a7.4 7.4 0 1 0 14.8 0 a7.4 7.4 0 1 0 -14.8 0zM454.23 918.82 a7.4 7.4 0 1 0 14.8 0 a7.4 7.4 0 1 0 -14.8 0zM390.15 881.82 a7.4 7.4 0 1 0 14.8 0 a7.4 7.4 0 1 0 -14.8 0zM390.15 807.82 a7.4 7.4 0 1 0 14.8 0 a7.4 7.4 0 1 0 -14.8 0zM582.41 252.82 a7.4 7.4 0 1 0 14.8 0 a7.4 7.4 0 1 0 -14.8 0zM582.41 326.82 a7.4 7.4 0 1 0 14.8 0 a7.4 7.4 0 1 0 -14.8 0zM518.32 363.82 a7.4 7.4 0 1 0 14.8 0 a7.4 7.4 0 1 0 -14.8 0zM454.23 326.82 a7.4 7.4 0 1 0 14.8 0 a7.4 7.4 0 1 0 -14.8 0zM518.32 437.82 a7.4 7.4 0 1 0 14.8 0 a7.4 7.4 0 1 0 -14.8 0zM582.41 474.82 a7.4 7.4 0 1 0 14.8 0 a7.4 7.4 0 1 0 -14.8 0zM582.41 548.82 a7.4 7.4 0 1 0 14.8 0 a7.4 7.4 0 1 0 -14.8 0zM454.23 474.82 a7.4 7.4 0 1 0 14.8 0 a7.4 7.4 0 1 0 -14.8 0zM582.41 696.82 a7.4 7.4 0 1 0 14.8 0 a7.4 7.4 0 1 0 -14.8 0zM582.41 770.82 a7.4 7.4 0 1 0 14.8 0 a7.4 7.4 0 1 0 -14.8 0zM710.58 104.82 a7.4 7.4 0 1 0 14.8 0 a7.4 7.4 0 1 0 -14.8 0zM774.67 141.82 a7.4 7.4 0 1 0 14.8 0 a7.4 7.4 0 1 0 -14.8 0zM774.67 215.82 a7.4 7.4 0 1 0 14.8 0 a7.4 7.4 0 1 0 -14.8 0zM710.58 252.82 a7.4 7.4 0 1 0 14.8 0 a7.4 7.4 0 1 0 -14.8 0zM646.5 215.82 a7.4 7.4 0 1 0 14.8 0 a7.4 7.4 0 1 0 -14.8 0zM646.5 141.82 a7.4 7.4 0 1 0 14.8 0 a7.4 7.4 0 1 0 -14.8 0zM646.5 437.82 a7.4 7.4 0 1 0 14.8 0 a7.4 7.4 0 1 0 -14.8 0zM710.58 474.82 a7.4 7.4 0 1 0 14.8 0 a7.4 7.4 0 1 0 -14.8 0zM710.58 548.82 a7.4 7.4 0 1 0 14.8 0 a7.4 7.4 0 1 0 -14.8 0zM646.5 585.82 a7.4 7.4 0 1 0 14.8 0 a7.4 7.4 0 1 0 -14.8 0zM646.5 659.82 a7.4 7.4 0 1 0 14.8 0 a7.4 7.4 0 1 0 -14.8 0zM710.58 696.82 a7.4 7.4 0 1 0 14.8 0 a7.4 7.4 0 1 0 -14.8 0zM710.58 770.82 a7.4 7.4 0 1 0 14.8 0 a7.4 7.4 0 1 0 -14.8 0zM646.5 807.82 a7.4 7.4 0 1 0 14.8 0 a7.4 7.4 0 1 0 -14.8 0zM838.76 104.82 a7.4 7.4 0 1 0 14.8 0 a7.4 7.4 0 1 0 -14.8 0zM902.85 141.82 a7.4 7.4 0 1 0 14.8 0 a7.4 7.4 0 1 0 -14.8 0zM902.85 215.82 a7.4 7.4 0 1 0 14.8 0 a7.4 7.4 0 1 0 -14.8 0zM838.76 252.82 a7.4 7.4 0 1 0 14.8 0 a7.4 7.4 0 1 0 -14.8 0zM838.76 770.82 a7.4 7.4 0 1 0 14.8 0 a7.4 7.4 0 1 0 -14.8 0zM902.85 807.82 a7.4 7.4 0 1 0 14.8 0 a7.4 7.4 0 1 0 -14.8 0zM902.85 881.82 a7.4 7.4 0 1 0 14.8 0 a7.4 7.4 0 1 0 -14.8 0zM838.76 918.82 a7.4 7.4 0 1 0 14.8 0 a7.4 7.4 0 1 0 -14.8 0zM774.67 881.82 a7.4 7.4 0 1 0 14.8 0 a7.4 7.4 0 1 0 -14.8 0zM774.67 807.82 a7.4 7.4 0 1 0 14.8 0 a7.4 7.4 0 1 0 -14.8 0zM902.85 437.82 a7.4 7.4 0 1 0 14.8 0 a7.4 7.4 0 1 0 -14.8 0zM966.94 474.82 a7.4 7.4 0 1 0 14.8 0 a7.4 7.4 0 1 0 -14.8 0zM966.94 548.82 a7.4 7.4 0 1 0 14.8 0 a7.4 7.4 0 1 0 -14.8 0zM902.85 585.82 a7.4 7.4 0 1 0 14.8 0 a7.4 7.4 0 1 0 -14.8 0zM838.76 548.82 a7.4 7.4 0 1 0 14.8 0 a7.4 7.4 0 1 0 -14.8 0zM838.76 474.82 a7.4 7.4 0 1 0 14.8 0 a7.4 7.4 0 1 0 -14.8 0zM966.94 770.82 a7.4 7.4 0 1 0 14.8 0 a7.4 7.4 0 1 0 -14.8 0zM1031.02 807.82 a7.4 7.4 0 1 0 14.8 0 a7.4 7.4 0 1 0 -14.8 0zM1031.02 881.82 a7.4 7.4 0 1 0 14.8 0 a7.4 7.4 0 1 0 -14.8 0zM966.94 918.82 a7.4 7.4 0 1 0 14.8 0 a7.4 7.4 0 1 0 -14.8 0zM1031.02 437.82 a7.4 7.4 0 1 0 14.8 0 a7.4 7.4 0 1 0 -14.8 0zM1095.11 474.82 a7.4 7.4 0 1 0 14.8 0 a7.4 7.4 0 1 0 -14.8 0zM1095.11 548.82 a7.4 7.4 0 1 0 14.8 0 a7.4 7.4 0 1 0 -14.8 0zM1031.02 585.82 a7.4 7.4 0 1 0 14.8 0 a7.4 7.4 0 1 0 -14.8 0zM1031.02 659.82 a7.4 7.4 0 1 0 14.8 0 a7.4 7.4 0 1 0 -14.8 0zM1095.11 696.82 a7.4 7.4 0 1 0 14.8 0 a7.4 7.4 0 1 0 -14.8 0zM1095.11 770.82 a7.4 7.4 0 1 0 14.8 0 a7.4 7.4 0 1 0 -14.8 0zM966.94 696.82 a7.4 7.4 0 1 0 14.8 0 a7.4 7.4 0 1 0 -14.8 0zM1159.2 -6.18 a7.4 7.4 0 1 0 14.8 0 a7.4 7.4 0 1 0 -14.8 0zM1223.29 30.82 a7.4 7.4 0 1 0 14.8 0 a7.4 7.4 0 1 0 -14.8 0zM1223.29 104.82 a7.4 7.4 0 1 0 14.8 0 a7.4 7.4 0 1 0 -14.8 0zM1159.2 141.82 a7.4 7.4 0 1 0 14.8 0 a7.4 7.4 0 1 0 -14.8 0zM1095.11 104.82 a7.4 7.4 0 1 0 14.8 0 a7.4 7.4 0 1 0 -14.8 0zM1095.11 30.82 a7.4 7.4 0 1 0 14.8 0 a7.4 7.4 0 1 0 -14.8 0zM1159.2 659.82 a7.4 7.4 0 1 0 14.8 0 a7.4 7.4 0 1 0 -14.8 0zM1223.29 696.82 a7.4 7.4 0 1 0 14.8 0 a7.4 7.4 0 1 0 -14.8 0zM1223.29 770.82 a7.4 7.4 0 1 0 14.8 0 a7.4 7.4 0 1 0 -14.8 0zM1159.2 807.82 a7.4 7.4 0 1 0 14.8 0 a7.4 7.4 0 1 0 -14.8 0z" fill="rgba(0, 0, 0, 0)"></path>
        <path d="M12.59 -20.96L55.89 4.04L55.89 54.04L12.59 79.04L-30.71 54.04L-30.71 4.04zM12.59 279.04L55.89 304.04L55.89 354.04L12.59 379.04L-30.71 354.04L-30.71 304.04zM12.59 429.04L55.89 454.04L55.89 504.04L12.59 529.04L-30.71 504.04L-30.71 454.04zM55.89 504.04L99.2 529.04L99.2 579.04L55.89 604.04L12.59 579.04L12.59 529.04zM12.59 579.04L55.89 604.04L55.89 654.04L12.59 679.04L-30.71 654.04L-30.71 604.04zM55.89 654.04L99.2 679.04L99.2 729.04L55.89 754.04L12.59 729.04L12.59 679.04zM99.2 -20.96L142.5 4.04L142.5 54.04L99.2 79.04L55.89 54.04L55.89 4.04zM142.5 54.04L185.8 79.04L185.8 129.04L142.5 154.04L99.2 129.04L99.2 79.04zM99.2 429.04L142.5 454.04L142.5 504.04L99.2 529.04L55.89 504.04L55.89 454.04zM99.2 579.04L142.5 604.04L142.5 654.04L99.2 679.04L55.89 654.04L55.89 604.04zM229.1 54.04L272.4 79.04L272.4 129.04L229.1 154.04L185.8 129.04L185.8 79.04zM185.8 429.04L229.1 454.04L229.1 504.04L185.8 529.04L142.5 504.04L142.5 454.04zM272.4 -20.96L315.71 4.04L315.71 54.04L272.4 79.04L229.1 54.04L229.1 4.04zM272.4 129.04L315.71 154.04L315.71 204.04L272.4 229.04L229.1 204.04L229.1 154.04zM272.4 579.04L315.71 604.04L315.71 654.04L272.4 679.04L229.1 654.04L229.1 604.04zM315.71 654.04L359.01 679.04L359.01 729.04L315.71 754.04L272.4 729.04L272.4 679.04zM359.01 -20.96L402.31 4.04L402.31 54.04L359.01 79.04L315.71 54.04L315.71 4.04zM402.31 54.04L445.62 79.04L445.62 129.04L402.31 154.04L359.01 129.04L359.01 79.04zM402.31 204.04L445.62 229.04L445.62 279.04L402.31 304.04L359.01 279.04L359.01 229.04zM359.01 579.04L402.31 604.04L402.31 654.04L359.01 679.04L315.71 654.04L315.71 604.04zM402.31 654.04L445.62 679.04L445.62 729.04L402.31 754.04L359.01 729.04L359.01 679.04zM445.62 579.04L488.92 604.04L488.92 654.04L445.62 679.04L402.31 654.04L402.31 604.04zM575.52 204.04L618.83 229.04L618.83 279.04L575.52 304.04L532.22 279.04L532.22 229.04zM575.52 804.04L618.83 829.04L618.83 879.04L575.52 904.04L532.22 879.04L532.22 829.04zM662.13 354.04L705.43 379.04L705.43 429.04L662.13 454.04L618.83 429.04L618.83 379.04zM618.83 429.04L662.13 454.04L662.13 504.04L618.83 529.04L575.52 504.04L575.52 454.04zM748.73 204.04L792.04 229.04L792.04 279.04L748.73 304.04L705.43 279.04L705.43 229.04zM792.04 129.04L835.34 154.04L835.34 204.04L792.04 229.04L748.73 204.04L748.73 154.04zM835.34 354.04L878.64 379.04L878.64 429.04L835.34 454.04L792.04 429.04L792.04 379.04zM835.34 504.04L878.64 529.04L878.64 579.04L835.34 604.04L792.04 579.04L792.04 529.04zM878.64 129.04L921.94 154.04L921.94 204.04L878.64 229.04L835.34 204.04L835.34 154.04zM921.94 204.04L965.25 229.04L965.25 279.04L921.94 304.04L878.64 279.04L878.64 229.04zM921.94 354.04L965.25 379.04L965.25 429.04L921.94 454.04L878.64 429.04L878.64 379.04zM878.64 729.04L921.94 754.04L921.94 804.04L878.64 829.04L835.34 804.04L835.34 754.04zM965.25 -20.96L1008.55 4.04L1008.55 54.04L965.25 79.04L921.94 54.04L921.94 4.04zM965.25 279.04L1008.55 304.04L1008.55 354.04L965.25 379.04L921.94 354.04L921.94 304.04zM965.25 429.04L1008.55 454.04L1008.55 504.04L965.25 529.04L921.94 504.04L921.94 454.04zM1008.55 504.04L1051.85 529.04L1051.85 579.04L1008.55 604.04L965.25 579.04L965.25 529.04zM965.25 729.04L1008.55 754.04L1008.55 804.04L965.25 829.04L921.94 804.04L921.94 754.04zM1095.15 204.04L1138.45 229.04L1138.45 279.04L1095.15 304.04L1051.85 279.04L1051.85 229.04zM1095.15 354.04L1138.45 379.04L1138.45 429.04L1095.15 454.04L1051.85 429.04L1051.85 379.04zM1095.15 504.04L1138.45 529.04L1138.45 579.04L1095.15 604.04L1051.85 579.04L1051.85 529.04zM1051.85 579.04L1095.15 604.04L1095.15 654.04L1051.85 679.04L1008.55 654.04L1008.55 604.04zM1051.85 729.04L1095.15 754.04L1095.15 804.04L1051.85 829.04L1008.55 804.04L1008.55 754.04zM1138.45 -20.96L1181.76 4.04L1181.76 54.04L1138.45 79.04L1095.15 54.04L1095.15 4.04zM1181.76 54.04L1225.06 79.04L1225.06 129.04L1181.76 154.04L1138.45 129.04L1138.45 79.04zM1181.76 204.04L1225.06 229.04L1225.06 279.04L1181.76 304.04L1138.45 279.04L1138.45 229.04zM1138.45 279.04L1181.76 304.04L1181.76 354.04L1138.45 379.04L1095.15 354.04L1095.15 304.04zM1138.45 579.04L1181.76 604.04L1181.76 654.04L1138.45 679.04L1095.15 654.04L1095.15 604.04zM1225.06 -20.96L1268.36 4.04L1268.36 54.04L1225.06 79.04L1181.76 54.04L1181.76 4.04zM1225.06 129.04L1268.36 154.04L1268.36 204.04L1225.06 229.04L1181.76 204.04L1181.76 154.04z" stroke="rgba(22, 78, 99, 0.4)" stroke-width="2"></path>
    </g>
    <defs>
        <mask id="SvgjsMask1056">
            <rect width="1280" height="800" fill="#ffffff"></rect>
        </mask>
    </defs>
</svg>